<?xml version="1.0" standalone="no"?>
<!DOCTYPE svg PUBLIC "-//W3C//DTD SVG 20010904//EN"
 "http://www.w3.org/TR/2001/REC-SVG-20010904/DTD/svg10.dtd">
<svg version="1.0" xmlns="http://www.w3.org/2000/svg"
 width="1400.000000pt" height="1400.000000pt" viewBox="0 0 1400.000000 1400.000000"
 preserveAspectRatio="xMidYMid meet">
<metadata>
Created by potrace 1.14, written by Peter Selinger 2001-2017
</metadata>
<g transform="translate(0.000000,1400.000000) scale(0.100000,-0.100000)"
fill="#000000" stroke="none">
<path d="M1210 13287 c-19 -39 -131 -268 -248 -507 -118 -239 -249 -507 -292
-595 -43 -88 -138 -284 -213 -435 -316 -645 -457 -933 -457 -935 0 -1 84 -173
186 -381 102 -208 290 -590 417 -849 126 -258 295 -603 375 -765 296 -603 407
-830 502 -1025 54 -110 175 -357 270 -550 95 -192 203 -413 240 -490 57 -118
253 -517 495 -1008 49 -99 65 -122 104 -151 25 -18 235 -167 466 -331 486
-346 718 -511 1231 -876 203 -145 380 -271 393 -279 25 -17 107 45 -694 -525
-459 -326 -555 -395 -555 -400 0 -4 136 -102 590 -425 396 -281 689 -490 1195
-850 160 -114 542 -386 850 -605 308 -219 641 -456 740 -527 98 -70 186 -128
196 -128 9 0 135 85 280 188 145 104 500 356 789 562 289 205 586 417 660 470
174 125 759 541 1250 890 604 429 593 421 578 436 -7 7 -112 83 -233 169 -817
579 -1014 721 -1015 727 0 7 -15 -3 1075 773 424 302 839 598 923 658 l152
109 89 181 c48 100 319 652 601 1227 282 575 559 1140 615 1255 57 116 170
347 252 515 83 168 254 517 381 775 126 259 314 641 416 849 102 208 186 380
186 381 0 2 -75 155 -166 341 -92 187 -210 429 -264 539 -93 190 -221 451
-493 1005 -66 135 -166 340 -222 455 l-103 210 -50 -105 c-27 -58 -125 -258
-217 -445 -92 -187 -225 -457 -295 -600 -352 -718 -1329 -2709 -1518 -3095
l-37 -74 -170 -121 c-93 -67 -289 -206 -435 -310 -146 -103 -427 -304 -625
-445 -198 -141 -533 -380 -745 -530 -212 -150 -461 -328 -555 -395 -93 -67
-375 -267 -625 -445 -250 -178 -460 -327 -467 -332 -8 -7 -49 16 -130 75 -65
46 -370 263 -678 482 -308 219 -668 476 -800 570 -132 94 -364 259 -515 366
-1466 1042 -1521 1081 -1532 1099 -11 20 -476 964 -543 1105 -29 61 -128 263
-220 450 -175 356 -575 1171 -775 1580 -65 132 -197 402 -295 600 -97 198
-199 406 -226 463 -27 56 -50 102 -51 102 -2 0 -19 -33 -38 -73z m101 -738
c99 -200 1374 -2799 1456 -2967 41 -84 73 -155 71 -157 -2 -2 -93 61 -203 139
-110 78 -418 297 -685 487 -779 555 -940 670 -1212 862 -141 100 -257 187
-257 193 -1 6 165 348 367 761 203 412 375 764 383 781 7 17 15 30 16 28 1 -1
30 -58 64 -127z m11626 -244 c95 -192 264 -538 377 -769 113 -230 206 -423
206 -430 -1 -6 -128 -101 -283 -211 -155 -110 -507 -360 -782 -556 -1159 -824
-1290 -917 -1294 -914 -3 3 579 1195 1376 2814 117 239 217 430 221 425 5 -5
85 -166 179 -359z m-12192 -1757 c220 -156 580 -413 800 -569 220 -157 621
-442 890 -634 270 -191 551 -392 625 -445 74 -53 371 -265 660 -470 289 -205
570 -405 625 -445 55 -39 352 -251 660 -470 308 -219 769 -548 1025 -730 256
-182 544 -387 640 -455 96 -68 179 -127 184 -131 8 -7 -368 -1154 -383 -1172
-4 -4 -277 185 -607 420 -571 406 -972 692 -2399 1708 -1275 907 -1744 1241
-1895 1349 l-155 111 -90 180 c-49 100 -147 298 -217 440 -70 143 -202 413
-294 600 -418 852 -494 1008 -494 1013 0 2 6 0 13 -5 6 -5 192 -138 412 -295z
m12739 -104 c-108 -219 -220 -448 -249 -509 -29 -60 -142 -292 -252 -515 -110
-223 -243 -495 -297 -605 l-98 -200 -156 -111 c-175 -123 -1045 -742 -1712
-1217 -239 -171 -536 -382 -660 -470 -124 -88 -355 -253 -515 -367 -159 -114
-526 -375 -815 -580 -289 -206 -675 -481 -859 -612 -184 -131 -338 -235 -342
-231 -8 10 -391 1164 -387 1168 2 2 201 144 443 315 242 172 463 329 490 350
28 20 104 75 170 122 485 344 1593 1133 1790 1273 132 94 476 340 765 545 289
206 633 451 765 545 132 94 456 325 720 513 264 188 685 487 935 666 250 178
456 323 458 321 1 -1 -86 -182 -194 -401z m-11301 -2737 c470 -335 1428 -1017
2032 -1447 165 -117 431 -306 590 -420 653 -465 1034 -736 1285 -915 146 -103
269 -192 275 -196 5 -5 -447 -9 -1011 -9 l-1019 0 -200 142 c-110 78 -447 318
-750 533 -302 215 -561 399 -575 408 -28 18 -24 10 -248 467 -85 173 -274 558
-419 855 -366 744 -453 925 -447 925 3 0 222 -154 487 -343z m10038 161 c-49
-101 -168 -345 -266 -543 -98 -198 -206 -418 -240 -490 -102 -212 -453 -927
-478 -971 -24 -45 9 -21 -1116 -821 l-454 -323 -1021 0 c-561 0 -1016 4 -1010
8 5 5 79 58 164 119 85 60 367 260 625 444 259 185 691 492 960 684 270 192
535 381 590 420 55 39 548 390 1095 780 547 390 1047 746 1110 791 63 46 118
83 122 83 4 1 -33 -81 -81 -181z m-5067 -3252 c154 -30 272 -94 392 -211 92
-91 149 -181 191 -300 25 -73 27 -92 28 -230 0 -143 -1 -154 -31 -238 -86
-238 -264 -409 -509 -487 -108 -34 -294 -39 -405 -11 -339 85 -570 358 -587
692 -12 230 59 414 221 574 86 84 156 131 257 172 127 51 298 66 443 39z
m-1546 -797 c204 -145 372 -268 372 -273 0 -10 -480 -1459 -485 -1465 -2 -2
-26 12 -52 31 -26 19 -300 214 -608 433 -308 219 -636 452 -728 518 -135 96
-166 122 -155 132 7 7 249 180 538 385 289 205 568 404 620 442 52 37 102 66
111 64 9 -2 183 -122 387 -267z m3246 228 c392 -278 1184 -843 1194 -852 11
-10 -45 -54 -294 -231 -170 -121 -518 -368 -774 -551 -256 -183 -467 -333
-470 -333 -6 0 -490 1450 -490 1465 1 11 748 545 763 545 5 0 37 -20 71 -43z
m-1215 -1674 c345 -247 629 -452 630 -456 3 -11 -1251 -907 -1269 -907 -5 0
-159 107 -342 237 -183 130 -467 333 -631 449 -164 117 -297 216 -295 221 1 4
254 188 563 407 308 219 589 421 625 447 36 26 71 48 78 48 7 1 295 -200 641
-446z"/>
</g>
</svg>
